<mxfile host="app.diagrams.net" modified="2023-09-19T18:18:22.460Z" agent="Mozilla/5.0 (Windows NT 10.0; Win64; x64) AppleWebKit/537.36 (KHTML, like Gecko) Chrome/116.0.0.0 Safari/537.36" etag="sJEDQuEB484sGd6QM2hF" version="21.7.5" type="device">
  <diagram name="Страница — 1" id="hobWc4s-Q6fWILHCbpvD">
    <mxGraphModel dx="1323" dy="862" grid="1" gridSize="10" guides="1" tooltips="1" connect="1" arrows="1" fold="1" page="1" pageScale="1" pageWidth="1169" pageHeight="827" math="0" shadow="0">
      <root>
        <mxCell id="0" />
        <mxCell id="1" parent="0" />
        <mxCell id="bafYPbkGJhW7oxayyBe3-47" value="" style="rounded=0;whiteSpace=wrap;html=1;" parent="1" vertex="1">
          <mxGeometry x="360" y="140" width="860" height="580" as="geometry" />
        </mxCell>
        <mxCell id="bafYPbkGJhW7oxayyBe3-1" value="" style="rounded=0;whiteSpace=wrap;html=1;" parent="1" vertex="1">
          <mxGeometry x="550" y="70" width="480" height="510" as="geometry" />
        </mxCell>
        <mxCell id="naIomc_ok1_9AgCJ26Jt-9" style="rounded=0;orthogonalLoop=1;jettySize=auto;html=1;exitX=0.5;exitY=0.5;exitDx=0;exitDy=0;exitPerimeter=0;entryX=0;entryY=0.5;entryDx=0;entryDy=0;endArrow=none;endFill=0;" parent="1" source="bafYPbkGJhW7oxayyBe3-2" target="naIomc_ok1_9AgCJ26Jt-2" edge="1">
          <mxGeometry relative="1" as="geometry" />
        </mxCell>
        <mxCell id="bafYPbkGJhW7oxayyBe3-2" value="Користувач" style="shape=umlActor;verticalLabelPosition=bottom;verticalAlign=top;html=1;outlineConnect=0;" parent="1" vertex="1">
          <mxGeometry x="380" y="240" width="30" height="60" as="geometry" />
        </mxCell>
        <mxCell id="bafYPbkGJhW7oxayyBe3-24" style="rounded=0;orthogonalLoop=1;jettySize=auto;html=1;exitX=1;exitY=0;exitDx=0;exitDy=0;" parent="1" source="bafYPbkGJhW7oxayyBe3-3" target="bafYPbkGJhW7oxayyBe3-8" edge="1">
          <mxGeometry relative="1" as="geometry" />
        </mxCell>
        <mxCell id="naIomc_ok1_9AgCJ26Jt-4" style="rounded=0;orthogonalLoop=1;jettySize=auto;html=1;exitX=0;exitY=0;exitDx=0;exitDy=0;entryX=0.5;entryY=1;entryDx=0;entryDy=0;dashed=1;" parent="1" source="bafYPbkGJhW7oxayyBe3-3" target="naIomc_ok1_9AgCJ26Jt-2" edge="1">
          <mxGeometry relative="1" as="geometry" />
        </mxCell>
        <mxCell id="naIomc_ok1_9AgCJ26Jt-7" value="&amp;lt;&amp;lt;include&amp;gt;&amp;gt;" style="edgeLabel;html=1;align=center;verticalAlign=middle;resizable=0;points=[];" parent="naIomc_ok1_9AgCJ26Jt-4" vertex="1" connectable="0">
          <mxGeometry x="-0.2404" y="2" relative="1" as="geometry">
            <mxPoint as="offset" />
          </mxGeometry>
        </mxCell>
        <mxCell id="bafYPbkGJhW7oxayyBe3-3" value="Запит на&amp;nbsp;створення відповідної чистоти&lt;span id=&quot;docs-internal-guid-c57abb48-7fff-8af7-19ce-6c347189a080&quot;&gt;&lt;/span&gt;" style="ellipse;whiteSpace=wrap;html=1;" parent="1" vertex="1">
          <mxGeometry x="670" y="270" width="170" height="50" as="geometry" />
        </mxCell>
        <mxCell id="bafYPbkGJhW7oxayyBe3-6" style="rounded=0;orthogonalLoop=1;jettySize=auto;html=1;exitX=0.5;exitY=1;exitDx=0;exitDy=0;entryX=0.5;entryY=0;entryDx=0;entryDy=0;dashed=1;" parent="1" source="bafYPbkGJhW7oxayyBe3-5" target="bafYPbkGJhW7oxayyBe3-3" edge="1">
          <mxGeometry relative="1" as="geometry" />
        </mxCell>
        <mxCell id="bafYPbkGJhW7oxayyBe3-7" value="&amp;lt;&amp;lt;include&amp;gt;&amp;gt;" style="edgeLabel;html=1;align=center;verticalAlign=middle;resizable=0;points=[];" parent="bafYPbkGJhW7oxayyBe3-6" vertex="1" connectable="0">
          <mxGeometry x="0.0924" y="1" relative="1" as="geometry">
            <mxPoint as="offset" />
          </mxGeometry>
        </mxCell>
        <mxCell id="l3Cp5staO5JzX2C2zLCY-5" style="rounded=0;orthogonalLoop=1;jettySize=auto;html=1;exitX=1;exitY=0.5;exitDx=0;exitDy=0;endArrow=none;endFill=0;" parent="1" source="bafYPbkGJhW7oxayyBe3-5" edge="1">
          <mxGeometry relative="1" as="geometry">
            <mxPoint x="1070" y="150" as="targetPoint" />
          </mxGeometry>
        </mxCell>
        <mxCell id="bafYPbkGJhW7oxayyBe3-5" value="Аналіз погодних умов&lt;span id=&quot;docs-internal-guid-c57abb48-7fff-8af7-19ce-6c347189a080&quot;&gt;&lt;/span&gt;" style="ellipse;whiteSpace=wrap;html=1;" parent="1" vertex="1">
          <mxGeometry x="857.5" y="170" width="160" height="40" as="geometry" />
        </mxCell>
        <mxCell id="bafYPbkGJhW7oxayyBe3-22" style="rounded=0;orthogonalLoop=1;jettySize=auto;html=1;entryX=1;entryY=0.5;entryDx=0;entryDy=0;" parent="1" source="bafYPbkGJhW7oxayyBe3-8" target="bafYPbkGJhW7oxayyBe3-13" edge="1">
          <mxGeometry relative="1" as="geometry" />
        </mxCell>
        <mxCell id="8I_JXQ2oZidU9sKFQ2yN-2" style="edgeStyle=orthogonalEdgeStyle;rounded=0;orthogonalLoop=1;jettySize=auto;html=1;endArrow=block;endFill=0;entryX=0.5;entryY=0;entryDx=0;entryDy=0;entryPerimeter=0;" parent="1" target="bafYPbkGJhW7oxayyBe3-2" edge="1">
          <mxGeometry relative="1" as="geometry">
            <mxPoint x="1135" y="200" as="sourcePoint" />
            <mxPoint x="505" y="220" as="targetPoint" />
            <Array as="points">
              <mxPoint x="1135" y="50" />
              <mxPoint x="425" y="50" />
            </Array>
          </mxGeometry>
        </mxCell>
        <mxCell id="bafYPbkGJhW7oxayyBe3-8" value="Технічний персонал" style="shape=umlActor;verticalLabelPosition=bottom;verticalAlign=top;html=1;outlineConnect=0;" parent="1" vertex="1">
          <mxGeometry x="1120" y="366" width="30" height="60" as="geometry" />
        </mxCell>
        <mxCell id="bafYPbkGJhW7oxayyBe3-13" value="Зміна рівню чистоти&lt;span id=&quot;docs-internal-guid-c57abb48-7fff-8af7-19ce-6c347189a080&quot;&gt;&lt;/span&gt;" style="ellipse;whiteSpace=wrap;html=1;" parent="1" vertex="1">
          <mxGeometry x="840" y="280" width="170" height="50" as="geometry" />
        </mxCell>
        <mxCell id="bafYPbkGJhW7oxayyBe3-17" style="rounded=0;orthogonalLoop=1;jettySize=auto;html=1;exitX=0.5;exitY=0;exitDx=0;exitDy=0;entryX=0.5;entryY=1;entryDx=0;entryDy=0;dashed=1;" parent="1" source="bafYPbkGJhW7oxayyBe3-16" target="bafYPbkGJhW7oxayyBe3-13" edge="1">
          <mxGeometry relative="1" as="geometry" />
        </mxCell>
        <mxCell id="bafYPbkGJhW7oxayyBe3-18" value="&amp;lt;&amp;lt;include&amp;gt;&amp;gt;" style="edgeLabel;html=1;align=center;verticalAlign=middle;resizable=0;points=[];" parent="bafYPbkGJhW7oxayyBe3-17" vertex="1" connectable="0">
          <mxGeometry x="0.0505" y="-1" relative="1" as="geometry">
            <mxPoint y="7" as="offset" />
          </mxGeometry>
        </mxCell>
        <mxCell id="bafYPbkGJhW7oxayyBe3-16" value="Попередній аналіз середовища&lt;span id=&quot;docs-internal-guid-c57abb48-7fff-8af7-19ce-6c347189a080&quot;&gt;&lt;/span&gt;" style="ellipse;whiteSpace=wrap;html=1;" parent="1" vertex="1">
          <mxGeometry x="872.5" y="370" width="150" height="46" as="geometry" />
        </mxCell>
        <mxCell id="bafYPbkGJhW7oxayyBe3-28" style="rounded=0;orthogonalLoop=1;jettySize=auto;html=1;exitX=0.5;exitY=1;exitDx=0;exitDy=0;" parent="1" source="bafYPbkGJhW7oxayyBe3-19" target="bafYPbkGJhW7oxayyBe3-26" edge="1">
          <mxGeometry relative="1" as="geometry" />
        </mxCell>
        <mxCell id="naIomc_ok1_9AgCJ26Jt-5" style="rounded=0;orthogonalLoop=1;jettySize=auto;html=1;entryX=0;entryY=1;entryDx=0;entryDy=0;dashed=1;" parent="1" source="bafYPbkGJhW7oxayyBe3-19" target="naIomc_ok1_9AgCJ26Jt-2" edge="1">
          <mxGeometry relative="1" as="geometry" />
        </mxCell>
        <mxCell id="naIomc_ok1_9AgCJ26Jt-8" value="&amp;lt;&amp;lt;include&amp;gt;&amp;gt;" style="edgeLabel;html=1;align=center;verticalAlign=middle;resizable=0;points=[];" parent="naIomc_ok1_9AgCJ26Jt-5" vertex="1" connectable="0">
          <mxGeometry x="0.0413" relative="1" as="geometry">
            <mxPoint as="offset" />
          </mxGeometry>
        </mxCell>
        <mxCell id="bafYPbkGJhW7oxayyBe3-19" value="Запит на надання необхідної інформації&lt;span id=&quot;docs-internal-guid-c57abb48-7fff-8af7-19ce-6c347189a080&quot;&gt;&lt;/span&gt;" style="ellipse;whiteSpace=wrap;html=1;" parent="1" vertex="1">
          <mxGeometry x="650" y="350" width="190" height="50" as="geometry" />
        </mxCell>
        <mxCell id="bafYPbkGJhW7oxayyBe3-35" style="rounded=0;orthogonalLoop=1;jettySize=auto;html=1;entryX=1;entryY=0.5;entryDx=0;entryDy=0;" parent="1" source="bafYPbkGJhW7oxayyBe3-26" target="bafYPbkGJhW7oxayyBe3-36" edge="1">
          <mxGeometry relative="1" as="geometry" />
        </mxCell>
        <mxCell id="bafYPbkGJhW7oxayyBe3-46" style="rounded=0;orthogonalLoop=1;jettySize=auto;html=1;entryX=1;entryY=0.5;entryDx=0;entryDy=0;" parent="1" source="bafYPbkGJhW7oxayyBe3-26" target="bafYPbkGJhW7oxayyBe3-29" edge="1">
          <mxGeometry relative="1" as="geometry" />
        </mxCell>
        <mxCell id="8I_JXQ2oZidU9sKFQ2yN-1" style="edgeStyle=orthogonalEdgeStyle;rounded=0;orthogonalLoop=1;jettySize=auto;html=1;endArrow=block;endFill=0;" parent="1" edge="1" target="bafYPbkGJhW7oxayyBe3-2">
          <mxGeometry relative="1" as="geometry">
            <mxPoint x="1009.95" y="690" as="sourcePoint" />
            <mxPoint x="330" y="390" as="targetPoint" />
            <Array as="points">
              <mxPoint x="1010" y="710" />
              <mxPoint x="425" y="710" />
            </Array>
          </mxGeometry>
        </mxCell>
        <mxCell id="bafYPbkGJhW7oxayyBe3-26" value="Співробітник офісу" style="shape=umlActor;verticalLabelPosition=bottom;verticalAlign=top;html=1;outlineConnect=0;" parent="1" vertex="1">
          <mxGeometry x="987.5" y="610" width="30" height="60" as="geometry" />
        </mxCell>
        <mxCell id="bafYPbkGJhW7oxayyBe3-39" style="rounded=0;orthogonalLoop=1;jettySize=auto;html=1;exitX=0;exitY=1;exitDx=0;exitDy=0;entryX=0.539;entryY=0.024;entryDx=0;entryDy=0;entryPerimeter=0;dashed=1;" parent="1" source="bafYPbkGJhW7oxayyBe3-29" target="bafYPbkGJhW7oxayyBe3-36" edge="1">
          <mxGeometry relative="1" as="geometry" />
        </mxCell>
        <mxCell id="bafYPbkGJhW7oxayyBe3-40" value="&amp;lt;&amp;lt;include&amp;gt;&amp;gt;" style="edgeLabel;html=1;align=center;verticalAlign=middle;resizable=0;points=[];" parent="bafYPbkGJhW7oxayyBe3-39" vertex="1" connectable="0">
          <mxGeometry x="-0.3289" y="-2" relative="1" as="geometry">
            <mxPoint x="-14" y="3" as="offset" />
          </mxGeometry>
        </mxCell>
        <mxCell id="bafYPbkGJhW7oxayyBe3-29" value="Пошук необхідної інформації&lt;span id=&quot;docs-internal-guid-c57abb48-7fff-8af7-19ce-6c347189a080&quot;&gt;&lt;/span&gt;" style="ellipse;whiteSpace=wrap;html=1;" parent="1" vertex="1">
          <mxGeometry x="870" y="468" width="135" height="42" as="geometry" />
        </mxCell>
        <mxCell id="bafYPbkGJhW7oxayyBe3-31" style="rounded=0;orthogonalLoop=1;jettySize=auto;html=1;exitX=1;exitY=1;exitDx=0;exitDy=0;entryX=0;entryY=0;entryDx=0;entryDy=0;dashed=1;" parent="1" source="bafYPbkGJhW7oxayyBe3-30" target="bafYPbkGJhW7oxayyBe3-29" edge="1">
          <mxGeometry relative="1" as="geometry" />
        </mxCell>
        <mxCell id="bafYPbkGJhW7oxayyBe3-34" value="&amp;lt;&amp;lt;include&amp;gt;&amp;gt;" style="edgeLabel;html=1;align=center;verticalAlign=middle;resizable=0;points=[];labelBackgroundColor=none;" parent="bafYPbkGJhW7oxayyBe3-31" vertex="1" connectable="0">
          <mxGeometry x="0.0425" relative="1" as="geometry">
            <mxPoint x="-12" y="-9" as="offset" />
          </mxGeometry>
        </mxCell>
        <mxCell id="bafYPbkGJhW7oxayyBe3-30" value="Аналіз різних джерел&lt;span id=&quot;docs-internal-guid-c57abb48-7fff-8af7-19ce-6c347189a080&quot;&gt;&lt;/span&gt;" style="ellipse;whiteSpace=wrap;html=1;" parent="1" vertex="1">
          <mxGeometry x="620" y="426" width="130" height="42" as="geometry" />
        </mxCell>
        <mxCell id="bafYPbkGJhW7oxayyBe3-43" style="edgeStyle=orthogonalEdgeStyle;rounded=0;orthogonalLoop=1;jettySize=auto;html=1;exitX=0;exitY=0.5;exitDx=0;exitDy=0;entryX=1;entryY=1;entryDx=0;entryDy=0;entryPerimeter=0;" parent="1" source="bafYPbkGJhW7oxayyBe3-36" edge="1" target="bafYPbkGJhW7oxayyBe3-2">
          <mxGeometry relative="1" as="geometry">
            <mxPoint x="440" y="310" as="targetPoint" />
            <Array as="points">
              <mxPoint x="440" y="551" />
              <mxPoint x="440" y="300" />
            </Array>
          </mxGeometry>
        </mxCell>
        <mxCell id="bafYPbkGJhW7oxayyBe3-36" value="Надання доступу до знайденої інформації&lt;span id=&quot;docs-internal-guid-c57abb48-7fff-8af7-19ce-6c347189a080&quot;&gt;&lt;/span&gt;" style="ellipse;whiteSpace=wrap;html=1;" parent="1" vertex="1">
          <mxGeometry x="645" y="530" width="160" height="42" as="geometry" />
        </mxCell>
        <mxCell id="bafYPbkGJhW7oxayyBe3-38" style="rounded=0;orthogonalLoop=1;jettySize=auto;html=1;entryX=0;entryY=0.5;entryDx=0;entryDy=0;endArrow=none;endFill=0;" parent="1" source="bafYPbkGJhW7oxayyBe3-37" target="bafYPbkGJhW7oxayyBe3-30" edge="1">
          <mxGeometry relative="1" as="geometry" />
        </mxCell>
        <mxCell id="bafYPbkGJhW7oxayyBe3-37" value="IBook" style="shape=umlActor;verticalLabelPosition=bottom;verticalAlign=top;html=1;outlineConnect=0;" parent="1" vertex="1">
          <mxGeometry x="460" y="459" width="30" height="60" as="geometry" />
        </mxCell>
        <mxCell id="naIomc_ok1_9AgCJ26Jt-3" style="rounded=0;orthogonalLoop=1;jettySize=auto;html=1;exitX=0;exitY=1;exitDx=0;exitDy=0;entryX=0.5;entryY=0;entryDx=0;entryDy=0;endArrow=classic;endFill=1;dashed=1;" parent="1" source="iALMkwSSL6uoYG6ehfJ8-2" target="naIomc_ok1_9AgCJ26Jt-2" edge="1">
          <mxGeometry relative="1" as="geometry" />
        </mxCell>
        <mxCell id="naIomc_ok1_9AgCJ26Jt-6" value="&amp;lt;&amp;lt;include&amp;gt;&amp;gt;" style="edgeLabel;html=1;align=center;verticalAlign=middle;resizable=0;points=[];" parent="naIomc_ok1_9AgCJ26Jt-3" vertex="1" connectable="0">
          <mxGeometry x="-0.1352" y="-1" relative="1" as="geometry">
            <mxPoint y="1" as="offset" />
          </mxGeometry>
        </mxCell>
        <mxCell id="iALMkwSSL6uoYG6ehfJ8-2" value="Створення шфблона" style="ellipse;whiteSpace=wrap;html=1;" parent="1" vertex="1">
          <mxGeometry x="650" y="150" width="160" height="40" as="geometry" />
        </mxCell>
        <mxCell id="iALMkwSSL6uoYG6ehfJ8-9" style="rounded=0;orthogonalLoop=1;jettySize=auto;html=1;entryX=1;entryY=0;entryDx=0;entryDy=0;dashed=1;" parent="1" source="iALMkwSSL6uoYG6ehfJ8-3" target="iALMkwSSL6uoYG6ehfJ8-2" edge="1">
          <mxGeometry relative="1" as="geometry" />
        </mxCell>
        <mxCell id="iALMkwSSL6uoYG6ehfJ8-10" value="&amp;lt;&amp;lt;include&amp;gt;&amp;gt;" style="edgeLabel;html=1;align=center;verticalAlign=middle;resizable=0;points=[];" parent="iALMkwSSL6uoYG6ehfJ8-9" vertex="1" connectable="0">
          <mxGeometry x="-0.196" y="1" relative="1" as="geometry">
            <mxPoint as="offset" />
          </mxGeometry>
        </mxCell>
        <mxCell id="iALMkwSSL6uoYG6ehfJ8-3" value="Створення форм&lt;span id=&quot;docs-internal-guid-c57abb48-7fff-8af7-19ce-6c347189a080&quot;&gt;&lt;/span&gt;" style="ellipse;whiteSpace=wrap;html=1;" parent="1" vertex="1">
          <mxGeometry x="880" y="80" width="135" height="40" as="geometry" />
        </mxCell>
        <mxCell id="iALMkwSSL6uoYG6ehfJ8-7" style="rounded=0;orthogonalLoop=1;jettySize=auto;html=1;entryX=0.5;entryY=0;entryDx=0;entryDy=0;dashed=1;" parent="1" source="iALMkwSSL6uoYG6ehfJ8-4" target="iALMkwSSL6uoYG6ehfJ8-2" edge="1">
          <mxGeometry relative="1" as="geometry" />
        </mxCell>
        <mxCell id="iALMkwSSL6uoYG6ehfJ8-8" value="&amp;lt;&amp;lt;include&amp;gt;&amp;gt;" style="edgeLabel;html=1;align=center;verticalAlign=middle;resizable=0;points=[];" parent="iALMkwSSL6uoYG6ehfJ8-7" vertex="1" connectable="0">
          <mxGeometry x="-0.2702" y="1" relative="1" as="geometry">
            <mxPoint as="offset" />
          </mxGeometry>
        </mxCell>
        <mxCell id="iALMkwSSL6uoYG6ehfJ8-4" value="Створення ескізів&lt;span id=&quot;docs-internal-guid-c57abb48-7fff-8af7-19ce-6c347189a080&quot;&gt;&lt;/span&gt;" style="ellipse;whiteSpace=wrap;html=1;" parent="1" vertex="1">
          <mxGeometry x="705" y="80" width="135" height="40" as="geometry" />
        </mxCell>
        <mxCell id="naIomc_ok1_9AgCJ26Jt-1" style="rounded=0;orthogonalLoop=1;jettySize=auto;html=1;entryX=1;entryY=0.3333333333333333;entryDx=0;entryDy=0;entryPerimeter=0;endArrow=block;endFill=0;exitX=0.667;exitY=1;exitDx=0;exitDy=0;exitPerimeter=0;" parent="1" source="l3Cp5staO5JzX2C2zLCY-1" target="bafYPbkGJhW7oxayyBe3-2" edge="1">
          <mxGeometry relative="1" as="geometry" />
        </mxCell>
        <mxCell id="naIomc_ok1_9AgCJ26Jt-10" style="rounded=0;orthogonalLoop=1;jettySize=auto;html=1;exitX=0.5;exitY=0.5;exitDx=0;exitDy=0;exitPerimeter=0;entryX=0;entryY=0;entryDx=0;entryDy=0;" parent="1" source="l3Cp5staO5JzX2C2zLCY-1" target="iALMkwSSL6uoYG6ehfJ8-2" edge="1">
          <mxGeometry relative="1" as="geometry" />
        </mxCell>
        <mxCell id="l3Cp5staO5JzX2C2zLCY-1" value="Архітектор-споживач" style="shape=umlActor;verticalLabelPosition=bottom;verticalAlign=top;html=1;outlineConnect=0;" parent="1" vertex="1">
          <mxGeometry x="470" y="150" width="30" height="60" as="geometry" />
        </mxCell>
        <mxCell id="l3Cp5staO5JzX2C2zLCY-3" value="Windy&lt;br&gt;" style="shape=umlActor;verticalLabelPosition=bottom;verticalAlign=top;html=1;outlineConnect=0;" parent="1" vertex="1">
          <mxGeometry x="1060" y="120" width="30" height="60" as="geometry" />
        </mxCell>
        <mxCell id="naIomc_ok1_9AgCJ26Jt-2" value="Авторизувати користувача" style="ellipse;whiteSpace=wrap;html=1;" parent="1" vertex="1">
          <mxGeometry x="560" y="215" width="160" height="50" as="geometry" />
        </mxCell>
      </root>
    </mxGraphModel>
  </diagram>
</mxfile>
